<svg id="Capa_1" data-name="Capa 1" xmlns="http://www.w3.org/2000/svg" viewBox="0 0 32 32"><defs><style>.cls-1{fill:#adf0ff;}</style></defs><title>favicon</title><rect class="cls-1" width="32" height="31.69"/><path d="M23.25,16A7.15,7.15,0,1,1,9,17a8.34,8.34,0,0,1,0-1,7.15,7.15,0,0,1,14.27,0ZM9.6,16a6.53,6.53,0,1,0,6.53-6.53A6.53,6.53,0,0,0,9.6,16Z"/><path d="M26.34,5.86l.42.31a12.25,12.25,0,0,1,3.92,6.53,13.22,13.22,0,0,1-1.11,9.69,8.78,8.78,0,0,1-3,3.47,1.13,1.13,0,0,1-.49.21l.31-.42a13.89,13.89,0,0,0,3-7.36,17.35,17.35,0,0,0-2.92-11.7l-.35-.52Z"/><path d="M5.82,26l-.42-.24a9.42,9.42,0,0,1-3.47-4.52A13.29,13.29,0,0,1,3.6,7.94,9.79,9.79,0,0,1,5.44,6a.81.81,0,0,1,.45-.2l-.28.45A18.45,18.45,0,0,0,2.9,12.53a16.64,16.64,0,0,0,.42,8.85,13.48,13.48,0,0,0,2.29,4.17,3.37,3.37,0,0,1,.28.38Z"/><path d="M5.51,18.36a11.59,11.59,0,0,0,4.93,6.46,11,11,0,0,0,7.91,1.63h0l-.38.18a7.87,7.87,0,0,1-5.41.34,10.05,10.05,0,0,1-5.14-3.29,8.56,8.56,0,0,1-2-4.9v-.42S5.44,18.54,5.51,18.36Z"/><path d="M13.6,5.17a11,11,0,0,1,8.47.9,10,10,0,0,1,4.58,7.57l-.2-.42a17.84,17.84,0,0,0-2.26-3.68,10.43,10.43,0,0,0-5.45-3.47A20.75,20.75,0,0,0,14,5.3Z"/><path d="M12.56,12.67a2.32,2.32,0,0,0,1.32,1.87,2.11,2.11,0,0,0,2.81-1,2.46,2.46,0,0,0,.14-.38,2.32,2.32,0,0,0-.39-1.73,4.58,4.58,0,0,1,4.14,3.47,4.76,4.76,0,1,1-8-1.91Zm3.75,4.79A.69.69,0,0,0,17,16.8v-.1a.69.69,0,0,0-.66-.73h-.07a.76.76,0,0,0-.77.76v0a.73.73,0,0,0,.76.7Z"/></svg>